# xmcd
#
# Track frame offsets:
#	150
#	12118
#	26295
#	49708
#	59366
#	86983
#	100004
#	117749
#	135981
#	152203
#	165861
#	179984
#	197681
#	211017
#	220636
#	245541
#	257638
#	279169
#
# Disc length: 4128
#
# Revision: 1
# Processed by: cddbd v1.5.1PL0 Copyright (c) Steve Scherf et al.
# Submitted via: CDex 1.51
# Normalized: r0:TDELIM( - )
#
DISCID=f1101e12
DTITLE=Various Artist - Rendez-Vous On The Jazz Boulevard vol. 3 1/2
DYEAR=2003
DGENRE=Jazz
TTITLE0=Susan Werner - Seeing You Again
TTITLE1=Rita Coolidge - Hallelujah I Love Him So
TTITLE2=Laika - The Best Is Yet To Come
TTITLE3=Ranee Lee - Honeysuckle Rose
TTITLE4=Yvonne Sanchez - Lover Man
TTITLE5=Jane Duboc - Photograph
TTITLE6=Madeleine Peyroux - Dance Me To The End Of Love
TTITLE7=Vivian Buczek - Deixa
TTITLE8=Lyambiko - You'd Be So Nice To Come Home To
TTITLE9=Sabina Haves - Swing Brother, Swing
TTITLE10=Ella Fitzgerald - Hotta Chocolatta
TTITLE11=Terrie Richards Alden And The Warren Vache Quartet - Please Don't Talk About Me When I'm Gone
TTITLE12=Come Shine - You'll Have To Swing It (Mr Paganini)
TTITLE13=Marie Bergman - Comes Love
TTITLE14=Carmen Lundy - Vu Ja De
TTITLE15=Anne Ducros - Taking A Chance On Love
TTITLE16=Paloma Berganza - Sous Le Ciel De Paris
TTITLE17=Kitty Kitty - Summertime
EXTD=YEAR: 2003
EXTT0=
EXTT1=
EXTT2=
EXTT3=
EXTT4=
EXTT5=
EXTT6=
EXTT7=
EXTT8=
EXTT9=
EXTT10=
EXTT11=
EXTT12=
EXTT13=
EXTT14=
EXTT15=
EXTT16=
EXTT17=
PLAYORDER=
